<svg viewBox="0 0 26 26" fill="none" xmlns="http://www.w3.org/2000/svg">
<path fill-rule="evenodd" clip-rule="evenodd" d="M13 25.7999C20.0693 25.7999 25.8 20.0692 25.8 13C25.8 5.93071 20.0693 0.199951 13 0.199951C5.93077 0.199951 0.200012 5.93071 0.200012 13C0.200012 20.0692 5.93077 25.7999 13 25.7999ZM18.9314 11.8686L14.1314 7.06858C13.5065 6.44374 12.4935 6.44374 11.8686 7.06858L7.06864 11.8686C6.4438 12.4934 6.4438 13.5065 7.06864 14.1313C7.69348 14.7562 8.70654 14.7562 9.33138 14.1313L11.4 12.0627V17.7999C11.4 18.6836 12.1164 19.4 13 19.4C13.8837 19.4 14.6 18.6836 14.6 17.7999V12.0627L16.6686 14.1313C17.2935 14.7562 18.3065 14.7562 18.9314 14.1313C19.5562 13.5065 19.5562 12.4934 18.9314 11.8686Z" fill="#989CA7"/>
</svg>
